<svg width="608" height="498" viewBox="0 0 608 498" fill="none" xmlns="http://www.w3.org/2000/svg" xmlns:xlink="http://www.w3.org/1999/xlink">
<rect width="608" height="498" fill="url(#pattern0_9306_13843)"/>
<path d="M64 80H544C552.284 80 559 86.7157 559 95V403C559 411.284 552.284 418 544 418H64C55.7157 418 49 411.284 49 403V95C49 86.7157 55.7157 80 64 80Z" fill="#FEFDF5"/>
<path d="M64 80H544C552.284 80 559 86.7157 559 95V403C559 411.284 552.284 418 544 418H64C55.7157 418 49 411.284 49 403V95C49 86.7157 55.7157 80 64 80Z" stroke="#E2E1D3" stroke-width="2"/>
<circle cx="78" cy="113.5" r="4" fill="#0B4FFF"/>
<path d="M89.6 118.168C87.656 118.168 86.876 116.932 86.876 115.096V109.42H88.196V115.096C88.196 116.428 88.652 117.028 89.6 117.028C90.536 117.028 91.004 116.428 91.004 115.096V109.42H92.324V115.096C92.324 116.92 91.544 118.168 89.6 118.168ZM94.2633 118V109.42H97.4193C98.8233 109.42 99.8553 110.164 99.8553 111.964C99.8553 113.776 98.8233 114.52 97.4193 114.52H95.5833V118H94.2633ZM95.5833 113.38H97.2753C98.0673 113.38 98.4873 112.936 98.4873 111.964C98.4873 110.992 98.0673 110.56 97.2753 110.56H95.5833V113.38ZM101.699 118V109.42H103.031V116.86H106.967V118H101.699ZM108.558 118V116.86H110.514V110.56H108.558V109.42H113.814V110.56H111.846V116.86H113.814V118H108.558ZM115.933 118V109.42H121.369V110.56H117.265V113.14H120.589V114.28H117.265V118H115.933ZM124.917 118V110.56H122.469V109.42H128.685V110.56H126.237V118H124.917Z" fill="#0B4FFF"/>
<path d="M139.283 118L136.715 109.42H138.155L140.003 116.608H140.015L141.839 109.42H143.219L140.711 118H139.283ZM147.367 118.168C145.519 118.168 144.187 117.076 144.127 115.108H145.483C145.543 116.236 146.107 117.052 147.355 117.052C148.423 117.052 148.795 116.452 148.795 115.66C148.795 114.568 148.111 114.412 146.791 114.016C145.627 113.644 144.403 113.2 144.403 111.592C144.403 110.14 145.459 109.252 147.079 109.252C148.771 109.252 149.887 110.26 149.983 111.976H148.615C148.495 110.932 148.027 110.368 147.067 110.368C146.227 110.368 145.771 110.764 145.771 111.52C145.771 112.456 146.431 112.672 147.391 112.96C148.783 113.38 150.163 113.788 150.163 115.588C150.163 117.064 149.227 118.168 147.367 118.168ZM153.614 118V116.524H155.102V118H153.614Z" fill="#232323" fill-opacity="0.5"/>
<circle cx="166" cy="113.5" r="4" fill="#C3C2B2"/>
<path d="M177.732 118.168C175.8 118.168 174.792 116.296 174.792 113.716C174.792 111.148 175.812 109.252 177.768 109.252C179.46 109.252 180.324 110.584 180.48 112.336H179.124C178.98 111.232 178.668 110.392 177.72 110.392C176.448 110.392 176.148 112.024 176.148 113.704C176.148 115.396 176.448 117.028 177.732 117.028C178.788 117.028 179.04 115.936 179.124 114.88H180.48C180.348 116.788 179.448 118.168 177.732 118.168ZM184.807 118.168C182.923 118.168 181.747 116.512 181.747 113.704C181.747 110.896 182.923 109.252 184.807 109.252C186.679 109.252 187.843 110.896 187.843 113.704C187.843 116.512 186.679 118.168 184.807 118.168ZM183.091 113.704C183.091 115.696 183.547 117.028 184.807 117.028C186.031 117.028 186.499 115.72 186.499 113.704C186.499 111.676 186.031 110.392 184.807 110.392C183.547 110.392 183.091 111.712 183.091 113.704ZM189.255 118V109.42H190.731L193.407 116.02H193.431V109.42H194.727V118H193.251L190.539 111.4H190.515L190.551 118H189.255ZM198.526 118V110.56H196.078V109.42H202.294V110.56H199.846V118H198.526ZM203.801 118V109.42H206.873C208.433 109.42 209.309 110.308 209.309 111.892C209.309 112.984 208.769 113.776 207.965 113.992V114.016C209.633 114.388 209.021 117.772 209.405 117.916V118H208.025C207.701 117.64 208.373 114.64 206.705 114.64H205.121V118H203.801ZM205.121 113.5H206.609C207.497 113.5 208.001 112.984 208.001 111.976C208.001 111.052 207.581 110.56 206.621 110.56H205.121V113.5ZM213.589 118.168C211.705 118.168 210.529 116.512 210.529 113.704C210.529 110.896 211.705 109.252 213.589 109.252C215.461 109.252 216.625 110.896 216.625 113.704C216.625 116.512 215.461 118.168 213.589 118.168ZM211.873 113.704C211.873 115.696 212.329 117.028 213.589 117.028C214.813 117.028 215.281 115.72 215.281 113.704C215.281 111.676 214.813 110.392 213.589 110.392C212.329 110.392 211.873 111.712 211.873 113.704ZM218.48 118V109.42H219.812V116.86H223.748V118H218.48ZM235.019 118.168C233.183 118.168 232.199 116.284 232.199 113.752C232.199 111.148 233.267 109.252 235.235 109.252C236.783 109.252 237.755 110.416 237.935 112.072H236.591C236.471 110.98 235.967 110.392 235.223 110.392C233.951 110.392 233.543 112.096 233.543 113.704C233.543 115.312 233.915 117.028 235.175 117.028C236.123 117.028 236.675 116.104 236.687 114.616H235.235V113.512H238.031V118H237.119L236.915 116.812H236.891C236.519 117.736 235.895 118.168 235.019 118.168ZM239.778 118V109.42H242.85C244.41 109.42 245.286 110.308 245.286 111.892C245.286 112.984 244.746 113.776 243.942 113.992V114.016C245.61 114.388 244.998 117.772 245.382 117.916V118H244.002C243.678 117.64 244.35 114.64 242.682 114.64H241.098V118H239.778ZM241.098 113.5H242.586C243.474 113.5 243.978 112.984 243.978 111.976C243.978 111.052 243.558 110.56 242.598 110.56H241.098V113.5ZM249.565 118.168C247.681 118.168 246.505 116.512 246.505 113.704C246.505 110.896 247.681 109.252 249.565 109.252C251.437 109.252 252.601 110.896 252.601 113.704C252.601 116.512 251.437 118.168 249.565 118.168ZM247.849 113.704C247.849 115.696 248.305 117.028 249.565 117.028C250.789 117.028 251.257 115.72 251.257 113.704C251.257 111.676 250.789 110.392 249.565 110.392C248.305 110.392 247.849 111.712 247.849 113.704ZM256.748 118.168C254.804 118.168 254.024 116.932 254.024 115.096V109.42H255.344V115.096C255.344 116.428 255.8 117.028 256.748 117.028C257.684 117.028 258.152 116.428 258.152 115.096V109.42H259.472V115.096C259.472 116.92 258.692 118.168 256.748 118.168ZM261.412 118V109.42H264.568C265.972 109.42 267.004 110.164 267.004 111.964C267.004 113.776 265.972 114.52 264.568 114.52H262.732V118H261.412ZM262.732 113.38H264.424C265.216 113.38 265.636 112.936 265.636 111.964C265.636 110.992 265.216 110.56 264.424 110.56H262.732V113.38Z" fill="#232323" fill-opacity="0.5"/>
<path d="M84.38 145H74.56C74.56 142.4 76.14 140.6 78.78 138.96C81.12 137.54 82.3 136.96 82.3 135.12C82.3 133.98 81.84 132.76 79.96 132.76C77.8 132.76 77.12 134.16 77.12 136.06H74.92C74.92 133.12 76.52 130.9 80.02 130.9C82.52 130.9 84.54 132.4 84.54 135.04C84.54 137.72 82.36 139.1 80.38 140.32C79.02 141.12 77.74 141.88 77.34 143.1V143.14H84.38V145ZM90.8867 145.28C88.3067 145.28 86.6067 143.56 86.3467 141.5H88.5867C88.7467 142.64 89.4267 143.48 90.9067 143.48C93.4667 143.48 94.1467 141.08 94.1467 138.7V138.5L94.0867 138.48C93.3667 139.64 92.0867 140.3 90.5267 140.3C87.8467 140.3 85.9867 138.42 85.9867 135.7C85.9867 133.02 87.8467 130.9 90.9267 130.9C94.8867 130.9 96.3067 133.84 96.3067 138.06C96.3067 142.6 94.3267 145.28 90.8867 145.28ZM90.8467 138.48C92.7267 138.48 93.9067 137.28 93.9067 135.54C93.9067 133.86 92.8667 132.7 90.9667 132.7C89.1667 132.7 88.1867 133.84 88.1867 135.58C88.1867 137.4 89.2467 138.48 90.8467 138.48ZM99.512 145H97.332V142.82H99.512V145ZM102.341 145V134.74C101.741 135.3 100.681 135.4 99.4412 135.4V133.64C101.881 133.58 102.601 132.84 102.781 131.18H104.501V145H102.341ZM116.178 145H106.358C106.358 142.4 107.938 140.6 110.578 138.96C112.918 137.54 114.098 136.96 114.098 135.12C114.098 133.98 113.638 132.76 111.758 132.76C109.598 132.76 108.918 134.16 108.918 136.06H106.718C106.718 133.12 108.318 130.9 111.818 130.9C114.318 130.9 116.338 132.4 116.338 135.04C116.338 137.72 114.158 139.1 112.178 140.32C110.818 141.12 109.538 141.88 109.138 143.1V143.14H116.178V145ZM120.864 138.84C118.584 138.84 117.404 137.08 117.404 134.86C117.404 132.66 118.544 130.9 120.864 130.9C123.124 130.9 124.304 132.66 124.304 134.86C124.304 137.08 123.164 138.84 120.864 138.84ZM122.364 145H120.644L128.324 131.18H130.044L122.364 145ZM120.864 137.34C121.964 137.34 122.484 136.38 122.484 134.86C122.484 133.34 121.964 132.38 120.864 132.38C119.744 132.38 119.224 133.34 119.224 134.86C119.224 136.38 119.744 137.34 120.864 137.34ZM129.844 145.28C127.564 145.28 126.404 143.52 126.404 141.32C126.404 139.1 127.544 137.34 129.844 137.34C132.124 137.34 133.284 139.1 133.284 141.32C133.284 143.52 132.144 145.28 129.844 145.28ZM129.844 143.8C130.944 143.8 131.484 142.84 131.484 141.32C131.484 139.8 130.944 138.84 129.844 138.84C128.744 138.84 128.204 139.8 128.204 141.32C128.204 142.84 128.744 143.8 129.844 143.8Z" fill="#232323"/>
<path d="M304.972 118V116.86H306.928V110.56H304.972V109.42H310.228V110.56H308.26V116.86H310.228V118H304.972ZM312.059 118V109.42H313.535L316.211 116.02H316.235V109.42H317.531V118H316.055L313.343 111.4H313.319L313.355 118H312.059ZM322.123 118.168C320.191 118.168 319.183 116.296 319.183 113.716C319.183 111.148 320.203 109.252 322.159 109.252C323.851 109.252 324.715 110.584 324.871 112.336H323.515C323.371 111.232 323.059 110.392 322.111 110.392C320.839 110.392 320.539 112.024 320.539 113.704C320.539 115.396 320.839 117.028 322.123 117.028C323.179 117.028 323.431 115.936 323.515 114.88H324.871C324.739 116.788 323.839 118.168 322.123 118.168ZM326.606 118V109.42H329.678C331.238 109.42 332.114 110.308 332.114 111.892C332.114 112.984 331.574 113.776 330.77 113.992V114.016C332.438 114.388 331.826 117.772 332.21 117.916V118H330.83C330.506 117.64 331.178 114.64 329.51 114.64H327.926V118H326.606ZM327.926 113.5H329.414C330.302 113.5 330.806 112.984 330.806 111.976C330.806 111.052 330.386 110.56 329.426 110.56H327.926V113.5ZM333.849 118V109.42H339.189V110.56H335.181V112.996H338.673V114.136H335.181V116.86H339.297V118H333.849ZM340.661 118V109.42H342.113L343.565 114.868H343.589L345.041 109.42H346.493V118H345.281V111.46H345.257L344.117 116.08H343.037L341.897 111.46H341.873V118H340.661ZM348.24 118V109.42H353.58V110.56H349.572V112.996H353.064V114.136H349.572V116.86H353.688V118H348.24ZM355.231 118V109.42H356.707L359.383 116.02H359.407V109.42H360.703V118H359.227L356.515 111.4H356.491L356.527 118H355.231ZM364.503 118V110.56H362.055V109.42H368.271V110.56H365.823V118H364.503ZM369.046 118L371.65 109.42H373.042L375.67 118H374.254L373.714 115.936H370.954L370.426 118H369.046ZM371.302 114.82H373.366L372.37 110.644H372.322L371.302 114.82ZM377.261 118V109.42H378.593V116.86H382.529V118H377.261ZM390.632 118L393.236 109.42H394.628L397.256 118H395.84L395.3 115.936H392.54L392.012 118H390.632ZM392.888 114.82H394.952L393.956 110.644H393.908L392.888 114.82ZM401.271 118.168C399.339 118.168 398.331 116.296 398.331 113.716C398.331 111.148 399.351 109.252 401.307 109.252C402.999 109.252 403.863 110.584 404.019 112.336H402.663C402.519 111.232 402.207 110.392 401.259 110.392C399.987 110.392 399.687 112.024 399.687 113.704C399.687 115.396 399.987 117.028 401.271 117.028C402.327 117.028 402.579 115.936 402.663 114.88H404.019C403.887 116.788 402.987 118.168 401.271 118.168ZM407.674 118V110.56H405.226V109.42H411.442V110.56H408.994V118H407.674ZM412.902 118V116.86H414.858V110.56H412.902V109.42H418.158V110.56H416.19V116.86H418.158V118H412.902ZM422.737 118.168C420.853 118.168 419.677 116.512 419.677 113.704C419.677 110.896 420.853 109.252 422.737 109.252C424.609 109.252 425.773 110.896 425.773 113.704C425.773 116.512 424.609 118.168 422.737 118.168ZM421.021 113.704C421.021 115.696 421.477 117.028 422.737 117.028C423.961 117.028 424.429 115.72 424.429 113.704C424.429 111.676 423.961 110.392 422.737 110.392C421.477 110.392 421.021 111.712 421.021 113.704ZM427.184 118V109.42H428.66L431.336 116.02H431.36V109.42H432.656V118H431.18L428.468 111.4H428.444L428.48 118H427.184ZM437.32 118.168C435.472 118.168 434.14 117.076 434.08 115.108H435.436C435.496 116.236 436.06 117.052 437.308 117.052C438.376 117.052 438.748 116.452 438.748 115.66C438.748 114.568 438.064 114.412 436.744 114.016C435.58 113.644 434.356 113.2 434.356 111.592C434.356 110.14 435.412 109.252 437.032 109.252C438.724 109.252 439.84 110.26 439.936 111.976H438.568C438.448 110.932 437.98 110.368 437.02 110.368C436.18 110.368 435.724 110.764 435.724 111.52C435.724 112.456 436.384 112.672 437.344 112.96C438.736 113.38 440.116 113.788 440.116 115.588C440.116 117.064 439.18 118.168 437.32 118.168Z" fill="#232323" fill-opacity="0.5"/>
<path d="M310.5 143.2H308.64V139.4H304.96V137.54H308.64V133.74H310.5V137.54H314.18V139.4H310.5V143.2ZM318.093 145V134.74C317.493 135.3 316.433 135.4 315.193 135.4V133.64C317.633 133.58 318.353 132.84 318.533 131.18H320.253V145H318.093ZM327.909 145.28C324.049 145.28 322.409 142.06 322.409 138.1C322.409 134.14 324.049 130.9 327.909 130.9C331.769 130.9 333.389 134.14 333.389 138.1C333.389 142.06 331.769 145.28 327.909 145.28ZM327.909 143.42C330.389 143.42 331.129 140.94 331.129 138.1C331.129 135.26 330.389 132.76 327.909 132.76C325.409 132.76 324.669 135.26 324.669 138.1C324.669 140.94 325.409 143.42 327.909 143.42ZM334.418 147.72V146.64C335.158 146.42 335.478 146.04 335.458 145H334.418V142.82H336.598V145C336.598 146.3 336.018 147.32 334.418 147.72ZM342.611 145.28C340.031 145.28 338.331 143.56 338.071 141.5H340.311C340.471 142.64 341.151 143.48 342.631 143.48C345.191 143.48 345.871 141.08 345.871 138.7V138.5L345.811 138.48C345.091 139.64 343.811 140.3 342.251 140.3C339.571 140.3 337.711 138.42 337.711 135.7C337.711 133.02 339.571 130.9 342.651 130.9C346.611 130.9 348.031 133.84 348.031 138.06C348.031 142.6 346.051 145.28 342.611 145.28ZM342.571 138.48C344.451 138.48 345.631 137.28 345.631 135.54C345.631 133.86 344.591 132.7 342.691 132.7C340.891 132.7 339.911 133.84 339.911 135.58C339.911 137.4 340.971 138.48 342.571 138.48ZM354.983 145.28C351.023 145.28 349.603 142.34 349.603 138.12C349.603 133.58 351.583 130.9 355.003 130.9C357.603 130.9 359.303 132.62 359.543 134.68H357.323C357.143 133.54 356.483 132.7 355.003 132.7C352.423 132.7 351.763 135.1 351.763 137.48V137.68L351.823 137.7C352.543 136.54 353.803 135.88 355.383 135.88C358.063 135.88 359.923 137.76 359.923 140.48C359.923 143.16 358.043 145.28 354.983 145.28ZM354.923 143.48C356.743 143.48 357.723 142.34 357.723 140.6C357.723 138.78 356.663 137.7 355.063 137.7C353.163 137.7 352.003 138.9 352.003 140.64C352.003 142.32 353.043 143.48 354.923 143.48ZM369.755 145H367.595V141.84H361.015V139.84L367.595 131.18H369.755V139.98H371.695V141.84H369.755V145ZM367.595 133.96L363.015 139.98H367.595V133.96Z" fill="#232323"/>
<path d="M74.0018 281.945H534V207.725L513.081 197.945L490.885 203.112L468.176 214.258L445.723 222.415L424.293 218.614L401.585 229.76L380.411 222.969L358.469 225.147L335.761 236.293L314.395 231.744L292.965 227.943L270.193 239.837L248.571 238.278L226.055 247.181L204.369 246.37L183.259 238.832L160.806 246.988L139.632 240.198L117.883 240.134L95.1742 251.28L74 244.489L74.0018 281.945Z" fill="#0B4FFF"/>
<path d="M74.0019 391.945H534L533.998 252.802L512.093 241.945L490.189 248.854L468.284 256.75L446.379 261.686L424.475 252.802L402.57 261.686L380.665 252.802L358.761 258.725L336.856 270.569L314.951 261.686L293.047 252.802L271.142 261.686L249.237 252.802L227.333 261.686L205.428 270.569L183.523 261.686L161.619 266.621L139.714 258.725L117.809 252.802L95.9047 261.686L74 252.802L74.0019 391.945Z" fill="#C3C2B2"/>
<defs>
<pattern id="pattern0_9306_13843" patternUnits="userSpaceOnUse" patternTransform="matrix(20 0 0 20 0 0)" preserveAspectRatio="none" viewBox="0 0 20 20" width="1" height="1">
<g id="pattern0_9306_13843_inner">
<rect width="20" height="20" fill="#FEFDF5"/>
<circle cx="10" cy="10" r="2" fill="#232323" fill-opacity="0.05"/>
</g>
</pattern></defs>
</svg>
