<svg width="28" height="28" viewBox="0 0 28 28" fill="none" xmlns="http://www.w3.org/2000/svg">
<path d="M14 1C21.1797 1 27 6.8203 27 14C27 21.1797 21.1797 27 14 27C6.8203 27 1 21.1797 1 14C1 6.8203 6.8203 1 14 1Z" fill="#5EEB78"/>
<path d="M14 1C21.1797 1 27 6.8203 27 14C27 21.1797 21.1797 27 14 27C6.8203 27 1 21.1797 1 14C1 6.8203 6.8203 1 14 1Z" stroke="#0B4FFF" stroke-width="2"/>
<path fill-rule="evenodd" clip-rule="evenodd" d="M17.8513 8.61428C18.3404 7.94601 19.2795 7.80045 19.948 8.28909C20.6165 8.77817 20.7621 9.71719 20.2732 10.3858L13.6882 19.3858C13.4473 19.715 13.0827 19.9317 12.6784 19.9864C12.2741 20.0408 11.8642 19.9286 11.5447 19.6748L8.00462 16.8623C7.35645 16.3471 7.2476 15.4034 7.76243 14.7549C8.27754 14.1066 9.22126 13.9982 9.86985 14.5127L12.1882 16.3545L17.8513 8.61428Z" fill="#191919"/>
</svg>
